<?xml version="1.0" standalone="no"?>
<!DOCTYPE svg PUBLIC "-//W3C//DTD SVG 20010904//EN"
 "http://www.w3.org/TR/2001/REC-SVG-20010904/DTD/svg10.dtd">
<svg version="1.0" xmlns="http://www.w3.org/2000/svg"
 width="2048.000000pt" height="2048.000000pt" viewBox="0 0 2048.000000 2048.000000"
 preserveAspectRatio="xMidYMid meet">
<metadata>
Created by potrace 1.14, written by Peter Selinger 2001-2017
</metadata>
<g transform="translate(0.000000,2048.000000) scale(0.100000,-0.100000)"
fill="#000000" stroke="none">
<path d="M5442 19179 c-195 -33 -407 -165 -525 -327 -54 -74 -4737 -8189
-4768 -8262 -45 -106 -62 -215 -56 -354 6 -150 32 -237 115 -386 117 -210
4655 -8067 4690 -8120 106 -163 287 -289 486 -340 79 -20 99 -20 4866 -20
4736 0 4788 0 4866 20 180 45 366 169 468 314 67 94 4744 8202 4772 8270 39
99 54 183 54 301 0 127 -17 215 -57 312 -27 62 -4656 8093 -4741 8223 -110
169 -271 289 -474 352 l-73 23 -4785 1 c-2717 1 -4808 -2 -4838 -7z m6563
-2488 c2403 -644 3350 -902 3403 -927 187 -86 343 -249 416 -435 41 -103 1795
-6663 1808 -6762 21 -156 -18 -339 -105 -497 -38 -69 -223 -257 -2506 -2543
-1957 -1959 -2481 -2479 -2541 -2518 -155 -102 -353 -152 -529 -132 -71 9
-953 241 -3401 897 -1818 488 -3330 896 -3360 908 -194 76 -354 226 -444 419
-27 56 -246 862 -896 3289 -474 1768 -877 3275 -896 3348 -54 212 -46 387 26
563 68 164 -32 60 2533 2627 1327 1328 2448 2442 2492 2478 95 77 211 136 320
163 64 17 107 20 215 18 l135 -3 3330 -893z"/>
<path d="M10115 15233 c-38 -8 -99 -27 -135 -42 -57 -24 -3719 -2132 -3795
-2184 -55 -38 -157 -141 -195 -197 -50 -73 -92 -160 -121 -245 l-24 -70 -3
-2225 -3 -2225 22 -93 c38 -171 144 -342 277 -448 63 -50 3674 -2141 3807
-2204 104 -50 178 -69 295 -76 111 -8 209 6 319 42 107 35 3583 2041 3654
2108 29 28 60 71 80 113 30 64 32 75 32 178 0 104 -2 114 -32 175 -57 115 -77
129 -738 511 -640 369 -732 418 -830 444 -146 39 -338 29 -486 -25 -48 -17
-365 -194 -860 -480 -431 -249 -806 -463 -834 -476 -134 -62 -310 -71 -450
-23 -45 16 -368 196 -919 514 -910 524 -929 537 -1012 663 -21 31 -52 95 -68
142 l-31 85 -3 1000 c-2 671 1 1023 8 1069 22 142 114 301 222 383 51 39 1610
944 1726 1002 75 37 112 49 199 61 87 12 197 -1 287 -34 34 -12 418 -229 855
-481 437 -252 820 -469 852 -482 113 -45 177 -57 314 -56 111 0 143 4 220 27
109 33 107 32 830 448 633 365 664 386 721 503 27 56 29 68 29 175 0 107 -2
119 -29 175 -60 123 13 77 -1880 1169 -962 555 -1781 1022 -1818 1038 -38 16
-99 36 -136 43 -86 19 -257 18 -347 -2z"/>
</g>
</svg>
