<svg width="200" height="200" viewBox="0 0 200 200" fill="none" xmlns="http://www.w3.org/2000/svg">
<path d="M48.5566 15.8975C49.4498 14.3505 51.1004 13.3975 52.8867 13.3975L147.113 13.3975C148.9 13.3975 150.55 14.3505 151.443 15.8975L198.557 97.5C199.45 99.047 199.45 100.953 198.557 102.5L151.443 184.103C150.55 185.65 148.9 186.603 147.113 186.603H52.8867C51.1004 186.603 49.4498 185.65 48.5566 184.103L1.44337 102.5C0.550207 100.953 0.550208 99.047 1.44337 97.5L48.5566 15.8975Z" fill="#2975BA"/>
<path d="M78.5473 29.5968C79.8104 28.3337 81.6515 27.8404 83.3769 28.3027L150.245 46.2198C151.97 46.6822 153.318 48.0299 153.78 49.7554L171.697 116.623C172.16 118.348 171.666 120.19 170.403 121.453L121.453 170.403C120.19 171.666 118.348 172.16 116.623 171.697L49.7554 153.78C48.0299 153.318 46.6822 151.97 46.2198 150.245L28.3027 83.3769C27.8404 81.6515 28.3337 79.8104 29.5968 78.5473L78.5473 29.5968Z" fill="white"/>
<path d="M138.801 72.4019L102.5 51.4434C100.953 50.5502 99.0469 50.5502 97.4999 51.4434L59.1987 73.5566C57.6517 74.4498 56.6987 76.1004 56.6987 77.8867V122.113C56.6987 123.9 57.6517 125.55 59.1987 126.443L97.4999 148.557C99.0469 149.45 100.953 149.45 102.5 148.557L138.801 127.598C140.801 126.443 140.801 123.557 138.801 122.402L124.151 113.943C122.604 113.05 120.698 113.05 119.151 113.943L102.5 123.557C100.953 124.45 99.047 124.45 97.5 123.557L80.8493 113.943C79.3023 113.05 78.3493 111.4 78.3493 109.613V90.3868C78.3493 88.6004 79.3023 86.9498 80.8493 86.0566L97.5 76.4434C99.047 75.5502 100.953 75.5502 102.5 76.4434L119.151 86.0566C120.698 86.9498 122.604 86.9498 124.151 86.0566L138.801 77.5981C140.801 76.4434 140.801 73.5566 138.801 72.4019Z" fill="#33B6FB"/>
</svg>
